<svg width="64" height="64" viewBox="0 0 64 64" fill="none" xmlns="http://www.w3.org/2000/svg">
<g clip-path="url(#clip0_2008_533849)">
<rect width="64" height="64" fill="white" fill-opacity="0.01"/>
<path d="M32 19.0181C30.2949 19.0181 28.6065 19.3539 27.0312 20.0064C25.4559 20.6589 24.0246 21.6153 22.8189 22.821C21.6132 24.0267 20.6568 25.458 20.0043 27.0333C19.3518 28.6086 19.016 30.297 19.016 32.0021C19.016 33.7071 19.3518 35.3955 20.0043 36.9708C20.6568 38.5461 21.6132 39.9775 22.8189 41.1831C24.0246 42.3888 25.4559 43.3452 27.0312 43.9977C28.6065 44.6502 30.2949 44.9861 32 44.9861C35.4436 44.9861 38.7461 43.6181 41.1811 41.1831C43.616 38.7482 44.984 35.4456 44.984 32.0021C44.984 28.5585 43.616 25.256 41.1811 22.821C38.7461 20.386 35.4436 19.0181 32 19.0181ZM23.016 32.0021C23.016 29.6194 23.9625 27.3342 25.6473 25.6494C27.3322 23.9646 29.6173 23.0181 32 23.0181C34.3827 23.0181 36.6678 23.9646 38.3526 25.6494C40.0375 27.3342 40.984 29.6194 40.984 32.0021C40.984 34.3848 40.0375 36.6699 38.3526 38.3547C36.6678 40.0395 34.3827 40.9861 32 40.9861C29.6173 40.9861 27.3322 40.0395 25.6473 38.3547C23.9625 36.6699 23.016 34.3848 23.016 32.0021Z" fill="#212529"/>
<path d="M39.184 5.37406C37.076 -1.78594 26.924 -1.78594 24.816 5.37406L24.44 6.65006C24.2928 7.14987 24.0356 7.6104 23.6873 7.9979C23.3389 8.38539 22.9083 8.69003 22.427 8.88947C21.9456 9.08892 21.4257 9.17812 20.9054 9.15053C20.3851 9.12295 19.8776 8.97928 19.42 8.73006L18.252 8.09006C11.692 4.52206 4.51999 11.6981 8.09199 18.2541L8.72799 19.4221C8.97721 19.8796 9.12088 20.3872 9.14846 20.9075C9.17604 21.4278 9.08684 21.9477 8.8874 22.429C8.68795 22.9104 8.38332 23.341 7.99582 23.6893C7.60833 24.0377 7.1478 24.2948 6.64799 24.4421L5.37199 24.8181C-1.78801 26.9261 -1.78801 37.0781 5.37199 39.1861L6.64799 39.5621C7.1478 39.7093 7.60833 39.9665 7.99582 40.3148C8.38332 40.6631 8.68795 41.0937 8.8874 41.5751C9.08684 42.0565 9.17604 42.5763 9.14846 43.0966C9.12088 43.617 8.97721 44.1245 8.72799 44.5821L8.08799 45.7501C4.51999 52.3101 11.692 59.4861 18.252 55.9101L19.42 55.2741C19.8776 55.0248 20.3851 54.8812 20.9054 54.8536C21.4257 54.826 21.9456 54.9152 22.427 55.1147C22.9083 55.3141 23.3389 55.6187 23.6873 56.0062C24.0356 56.3937 24.2928 56.8543 24.44 57.3541L24.816 58.6301C26.924 65.7901 37.076 65.7901 39.184 58.6301L39.56 57.3541C39.7072 56.8543 39.9644 56.3937 40.3127 56.0062C40.661 55.6187 41.0917 55.3141 41.573 55.1147C42.0544 54.9152 42.5743 54.826 43.0946 54.8536C43.6149 54.8812 44.1224 55.0248 44.58 55.2741L45.748 55.9141C52.308 59.4861 59.484 52.3061 55.908 45.7501L55.272 44.5821C55.0228 44.1245 54.8791 43.617 54.8515 43.0966C54.8239 42.5763 54.9131 42.0565 55.1126 41.5751C55.312 41.0937 55.6167 40.6631 56.0042 40.3148C56.3916 39.9665 56.8522 39.7093 57.352 39.5621L58.628 39.1861C65.788 37.0781 65.788 26.9261 58.628 24.8181L57.352 24.4421C56.8522 24.2948 56.3916 24.0377 56.0042 23.6893C55.6167 23.341 55.312 22.9104 55.1126 22.429C54.9131 21.9477 54.8239 21.4278 54.8515 20.9075C54.8791 20.3872 55.0228 19.8796 55.272 19.4221L55.912 18.2541C59.484 11.6941 52.304 4.52206 45.748 8.09406L44.58 8.73006C44.1224 8.97928 43.6149 9.12295 43.0946 9.15053C42.5743 9.17812 42.0544 9.08892 41.573 8.88947C41.0917 8.69003 40.661 8.38539 40.3127 7.9979C39.9644 7.6104 39.7072 7.14987 39.56 6.65006L39.184 5.37406ZM28.652 6.50606C29.636 3.16606 34.364 3.16606 35.348 6.50606L35.724 7.78206C36.0401 8.8544 36.5921 9.84241 37.3397 10.6737C38.0873 11.5049 39.0114 12.1583 40.0443 12.586C41.0772 13.0136 42.1927 13.2047 43.3091 13.1452C44.4255 13.0857 45.5144 12.7771 46.496 12.2421L47.66 11.6021C50.716 9.94206 54.06 13.2821 52.396 16.3421L51.76 17.5101C51.2257 18.4918 50.9179 19.5806 50.859 20.6967C50.8002 21.8128 50.9918 22.9279 51.4198 23.9604C51.8478 24.9929 52.5014 25.9165 53.3327 26.6636C54.164 27.4107 55.1519 27.9623 56.224 28.2781L57.496 28.6541C60.836 29.6381 60.836 34.3661 57.496 35.3501L56.22 35.7261C55.1476 36.0421 54.1596 36.5942 53.3284 37.3418C52.4971 38.0893 51.8437 39.0134 51.4161 40.0464C50.9884 41.0793 50.7973 42.1948 50.8568 43.3112C50.9163 44.4276 51.2249 45.5165 51.76 46.4981L52.4 47.6621C54.06 50.7181 50.72 54.0621 47.66 52.3981L46.496 51.7621C45.5141 51.2271 44.425 50.9186 43.3084 50.8594C42.1918 50.8001 41.0761 50.9915 40.0431 51.4196C39.0101 51.8477 38.0861 52.5015 37.3387 53.3332C36.5913 54.1649 36.0396 55.1534 35.724 56.2261L35.348 57.4981C34.364 60.8381 29.636 60.8381 28.652 57.4981L28.276 56.2221C27.9598 55.1503 27.4078 54.1628 26.6605 53.332C25.9132 52.5012 24.9896 51.848 23.9571 51.4204C22.9247 50.9928 21.8098 50.8015 20.6939 50.8607C19.578 50.9198 18.4894 51.2278 17.508 51.7621L16.34 52.4021C13.284 54.0621 9.93999 50.7221 11.604 47.6621L12.24 46.4981C12.7758 45.5163 13.085 44.427 13.1449 43.3102C13.2048 42.1934 13.0139 41.0773 12.5862 40.0438C12.1584 39.0104 11.5048 38.0858 10.6731 37.338C9.84144 36.5902 8.85289 36.038 7.77999 35.7221L6.50399 35.3461C3.16399 34.3621 3.16399 29.6341 6.50399 28.6501L7.77999 28.2741C8.85121 27.9577 9.83815 27.4058 10.6686 26.6588C11.499 25.9118 12.1518 24.9886 12.5794 23.9567C13.007 22.9248 13.1984 21.8104 13.1397 20.6949C13.0809 19.5795 12.7735 18.4914 12.24 17.5101L11.6 16.3421C9.93999 13.2861 13.28 9.94206 16.34 11.6061L17.508 12.2421C18.4894 12.7764 19.578 13.0844 20.6939 13.1435C21.8098 13.2026 22.9247 13.0113 23.9571 12.5837C24.9896 12.1561 25.9132 11.503 26.6605 10.6721C27.4078 9.84132 27.9598 8.85385 28.276 7.78206L28.652 6.50606Z" fill="#212529"/>
</g>
<defs>
<clipPath id="clip0_2008_533849">
<rect width="64" height="64" fill="white"/>
</clipPath>
</defs>
</svg>
