<svg width="64" height="64" viewBox="0 0 64 64" fill="none" xmlns="http://www.w3.org/2000/svg">
<path d="M29.08 4.18799C29.4541 3.78835 29.9064 3.46976 30.4086 3.25196C30.9109 3.03416 31.4525 2.92178 32 2.92178C32.5474 2.92178 33.0891 3.03416 33.5913 3.25196C34.0936 3.46976 34.5458 3.78835 34.92 4.18799L60.3 31.268C62.7 33.82 60.884 38 57.38 38H46V42C46 43.0609 45.5786 44.0783 44.8284 44.8284C44.0783 45.5786 43.0609 46 42 46H22C20.9391 46 19.9217 45.5786 19.1716 44.8284C18.4214 44.0783 18 43.0609 18 42V38H6.61598C3.11998 38 1.30398 33.82 3.69598 31.264L29.08 4.18799ZM18 54C18 52.9391 18.4214 51.9217 19.1716 51.1716C19.9217 50.4214 20.9391 50 22 50H42C43.0609 50 44.0783 50.4214 44.8284 51.1716C45.5786 51.9217 46 52.9391 46 54V58C46 59.0609 45.5786 60.0783 44.8284 60.8284C44.0783 61.5786 43.0609 62 42 62H22C20.9391 62 19.9217 61.5786 19.1716 60.8284C18.4214 60.0783 18 59.0609 18 58V54Z" fill="#212529"/>
</svg>
