<svg width="64" height="64" viewBox="0 0 64 64" fill="none" xmlns="http://www.w3.org/2000/svg">
<g clip-path="url(#clip0_2008_533854)">
<path d="M0 8C0 5.87827 0.842855 3.84344 2.34315 2.34315C3.84344 0.842855 5.87827 0 8 0L56 0C58.1217 0 60.1566 0.842855 61.6569 2.34315C63.1571 3.84344 64 5.87827 64 8V40C64 42.1217 63.1571 44.1566 61.6569 45.6569C60.1566 47.1571 58.1217 48 56 48H17.656C16.5952 48.0002 15.578 48.4218 14.828 49.172L3.416 60.584C3.13652 60.8642 2.7802 61.0552 2.39214 61.1328C2.00408 61.2103 1.60173 61.1711 1.236 61.0199C0.870268 60.8687 0.557608 60.6124 0.337589 60.2835C0.11757 59.9546 8.40595e-05 59.5677 0 59.172L0 8ZM14 12C13.4696 12 12.9609 12.2107 12.5858 12.5858C12.2107 12.9609 12 13.4696 12 14C12 14.5304 12.2107 15.0391 12.5858 15.4142C12.9609 15.7893 13.4696 16 14 16H50C50.5304 16 51.0391 15.7893 51.4142 15.4142C51.7893 15.0391 52 14.5304 52 14C52 13.4696 51.7893 12.9609 51.4142 12.5858C51.0391 12.2107 50.5304 12 50 12H14ZM14 22C13.4696 22 12.9609 22.2107 12.5858 22.5858C12.2107 22.9609 12 23.4696 12 24C12 24.5304 12.2107 25.0391 12.5858 25.4142C12.9609 25.7893 13.4696 26 14 26H50C50.5304 26 51.0391 25.7893 51.4142 25.4142C51.7893 25.0391 52 24.5304 52 24C52 23.4696 51.7893 22.9609 51.4142 22.5858C51.0391 22.2107 50.5304 22 50 22H14ZM14 32C13.4696 32 12.9609 32.2107 12.5858 32.5858C12.2107 32.9609 12 33.4696 12 34C12 34.5304 12.2107 35.0391 12.5858 35.4142C12.9609 35.7893 13.4696 36 14 36H34C34.5304 36 35.0391 35.7893 35.4142 35.4142C35.7893 35.0391 36 34.5304 36 34C36 33.4696 35.7893 32.9609 35.4142 32.5858C35.0391 32.2107 34.5304 32 34 32H14Z" fill="#212529"/>
</g>
<defs>
<clipPath id="clip0_2008_533854">
<rect width="64" height="64" fill="white"/>
</clipPath>
</defs>
</svg>
