<svg width="64" height="64" viewBox="0 0 64 64" fill="none" xmlns="http://www.w3.org/2000/svg">
<g clip-path="url(#clip0_2008_533856)">
<path d="M0 8C0 5.87827 0.842855 3.84344 2.34315 2.34315C3.84344 0.842855 5.87827 0 8 0L56 0C58.1217 0 60.1566 0.842855 61.6569 2.34315C63.1571 3.84344 64 5.87827 64 8V40C64 42.1217 63.1571 44.1566 61.6569 45.6569C60.1566 47.1571 58.1217 48 56 48H17.656C16.5952 48.0002 15.578 48.4218 14.828 49.172L3.416 60.584C3.13652 60.8642 2.7802 61.0552 2.39214 61.1328C2.00408 61.2104 1.60173 61.1711 1.236 61.0199C0.870268 60.8687 0.557608 60.6124 0.337589 60.2835C0.11757 59.9546 8.40595e-05 59.5677 0 59.172L0 8ZM20 24C20 22.9391 19.5786 21.9217 18.8284 21.1716C18.0783 20.4214 17.0609 20 16 20C14.9391 20 13.9217 20.4214 13.1716 21.1716C12.4214 21.9217 12 22.9391 12 24C12 25.0609 12.4214 26.0783 13.1716 26.8284C13.9217 27.5786 14.9391 28 16 28C17.0609 28 18.0783 27.5786 18.8284 26.8284C19.5786 26.0783 20 25.0609 20 24ZM36 24C36 22.9391 35.5786 21.9217 34.8284 21.1716C34.0783 20.4214 33.0609 20 32 20C30.9391 20 29.9217 20.4214 29.1716 21.1716C28.4214 21.9217 28 22.9391 28 24C28 25.0609 28.4214 26.0783 29.1716 26.8284C29.9217 27.5786 30.9391 28 32 28C33.0609 28 34.0783 27.5786 34.8284 26.8284C35.5786 26.0783 36 25.0609 36 24ZM48 28C49.0609 28 50.0783 27.5786 50.8284 26.8284C51.5786 26.0783 52 25.0609 52 24C52 22.9391 51.5786 21.9217 50.8284 21.1716C50.0783 20.4214 49.0609 20 48 20C46.9391 20 45.9217 20.4214 45.1716 21.1716C44.4214 21.9217 44 22.9391 44 24C44 25.0609 44.4214 26.0783 45.1716 26.8284C45.9217 27.5786 46.9391 28 48 28Z" fill="#212529"/>
</g>
<defs>
<clipPath id="clip0_2008_533856">
<rect width="64" height="64" fill="white"/>
</clipPath>
</defs>
</svg>
