<svg width="64" height="64" viewBox="0 0 64 64" fill="none" xmlns="http://www.w3.org/2000/svg">
<g clip-path="url(#clip0_2008_533855)">
<path d="M8 0C5.87827 0 3.84344 0.842855 2.34315 2.34315C0.842855 3.84344 0 5.87827 0 8L0 59.172C8.40595e-05 59.5677 0.11757 59.9546 0.337589 60.2835C0.557608 60.6124 0.870268 60.8687 1.236 61.0199C1.60173 61.1711 2.00408 61.2104 2.39214 61.1328C2.7802 61.0552 3.13652 60.8642 3.416 60.584L14.828 49.172C15.578 48.4218 16.5952 48.0002 17.656 48H56C58.1217 48 60.1566 47.1571 61.6569 45.6569C63.1571 44.1566 64 42.1217 64 40V8C64 5.87827 63.1571 3.84344 61.6569 2.34315C60.1566 0.842855 58.1217 0 56 0L8 0ZM32 15.972C38.656 9.128 55.3 21.104 32 36.5C8.7 21.1 25.344 9.128 32 15.972Z" fill="black"/>
</g>
<defs>
<clipPath id="clip0_2008_533855">
<rect width="64" height="64" fill="white"/>
</clipPath>
</defs>
</svg>
