<svg width="64" height="64" viewBox="0 0 64 64" fill="none" xmlns="http://www.w3.org/2000/svg">
<path fill-rule="evenodd" clip-rule="evenodd" d="M32 13.172L56 37.172V54C56 55.5913 55.3679 57.1174 54.2426 58.2426C53.1174 59.3679 51.5913 60 50 60H14C12.4087 60 10.8826 59.3679 9.75735 58.2426C8.63213 57.1174 7.99999 55.5913 7.99999 54V37.172L32 13.172ZM52 10V24L44 16V10C44 9.46957 44.2107 8.96086 44.5858 8.58579C44.9608 8.21072 45.4696 8 46 8H50C50.5304 8 51.0391 8.21072 51.4142 8.58579C51.7893 8.96086 52 9.46957 52 10Z" fill="#212529"/>
<path fill-rule="evenodd" clip-rule="evenodd" d="M29.172 6C29.9221 5.25012 30.9393 4.82886 32 4.82886C33.0607 4.82886 34.0779 5.25012 34.828 6L61.416 32.584C61.7915 32.9596 62.0025 33.4689 62.0025 34C62.0025 34.5311 61.7915 35.0405 61.416 35.416C61.0404 35.7916 60.5311 36.0025 60 36.0025C59.4689 36.0025 58.9595 35.7916 58.584 35.416L32 8.828L5.41599 35.416C5.04045 35.7916 4.5311 36.0025 3.99999 36.0025C3.46889 36.0025 2.95954 35.7916 2.58399 35.416C2.20845 35.0405 1.99747 34.5311 1.99747 34C1.99747 33.4689 2.20845 32.9596 2.58399 32.584L29.172 6Z" fill="#212529"/>
</svg>
