<svg width="64" height="64" viewBox="0 0 64 64" fill="none" xmlns="http://www.w3.org/2000/svg">
<path d="M28 56C28 56 24 56 24 52C24 48 28 36 44 36C60 36 64 48 64 52C64 56 60 56 60 56H28ZM44 32C47.1826 32 50.2348 30.7357 52.4853 28.4853C54.7357 26.2348 56 23.1826 56 20C56 16.8174 54.7357 13.7652 52.4853 11.5147C50.2348 9.26428 47.1826 8 44 8C40.8174 8 37.7652 9.26428 35.5147 11.5147C33.2643 13.7652 32 16.8174 32 20C32 23.1826 33.2643 26.2348 35.5147 28.4853C37.7652 30.7357 40.8174 32 44 32Z" fill="#212529"/>
<path fill-rule="evenodd" clip-rule="evenodd" d="M20.864 56C20.271 54.7513 19.9753 53.3822 20 52C20 46.58 22.72 41 27.744 37.12C25.2364 36.3473 22.6238 35.9695 20 36C4 36 0 48 0 52C0 56 4 56 4 56H20.864Z" fill="#212529"/>
<path d="M18 32C20.6522 32 23.1957 30.9464 25.0711 29.0711C26.9464 27.1957 28 24.6522 28 22C28 19.3478 26.9464 16.8043 25.0711 14.9289C23.1957 13.0536 20.6522 12 18 12C15.3478 12 12.8043 13.0536 10.9289 14.9289C9.05357 16.8043 8 19.3478 8 22C8 24.6522 9.05357 27.1957 10.9289 29.0711C12.8043 30.9464 15.3478 32 18 32Z" fill="#212529"/>
</svg>
