<svg width="64" height="64" viewBox="0 0 64 64" fill="none" xmlns="http://www.w3.org/2000/svg">
<g clip-path="url(#clip0_2008_533851)">
<path d="M44 24C44 27.1826 42.7357 30.2348 40.4853 32.4853C38.2348 34.7357 35.1826 36 32 36C28.8174 36 25.7652 34.7357 23.5147 32.4853C21.2643 30.2348 20 27.1826 20 24C20 20.8174 21.2643 17.7652 23.5147 15.5147C25.7652 13.2643 28.8174 12 32 12C35.1826 12 38.2348 13.2643 40.4853 15.5147C42.7357 17.7652 44 20.8174 44 24Z" fill="#212529"/>
<path fill-rule="evenodd" clip-rule="evenodd" d="M0 32C0 23.5131 3.37142 15.3737 9.37258 9.37258C15.3737 3.37142 23.5131 0 32 0C40.4869 0 48.6263 3.37142 54.6274 9.37258C60.6286 15.3737 64 23.5131 64 32C64 40.4869 60.6286 48.6263 54.6274 54.6274C48.6263 60.6286 40.4869 64 32 64C23.5131 64 15.3737 60.6286 9.37258 54.6274C3.37142 48.6263 0 40.4869 0 32ZM32 4C26.7271 4.00028 21.5615 5.48945 17.0976 8.29611C12.6338 11.1028 9.05313 15.1128 6.76786 19.8648C4.48258 24.6167 3.58555 29.9174 4.17999 35.1566C4.77444 40.3959 6.83621 45.3608 10.128 49.48C12.968 44.904 19.22 40 32 40C44.78 40 51.028 44.9 53.872 49.48C57.1638 45.3608 59.2256 40.3959 59.82 35.1566C60.4145 29.9174 59.5174 24.6167 57.2321 19.8648C54.9469 15.1128 51.3662 11.1028 46.9024 8.29611C42.4385 5.48945 37.2729 4.00028 32 4Z" fill="#212529"/>
</g>
<defs>
<clipPath id="clip0_2008_533851">
<rect width="64" height="64" fill="white"/>
</clipPath>
</defs>
</svg>
