<svg width="254" height="254" viewBox="0 0 254 254" fill="none" xmlns="http://www.w3.org/2000/svg">
<g clip-path="url(#clip0_2008_533850)">
<path d="M127 238.125C97.5278 238.125 69.2627 226.417 48.4228 205.577C27.5828 184.737 15.875 156.472 15.875 127C15.875 97.5278 27.5828 69.2627 48.4228 48.4228C69.2627 27.5828 97.5278 15.875 127 15.875C156.472 15.875 184.737 27.5828 205.577 48.4228C226.417 69.2627 238.125 97.5278 238.125 127C238.125 156.472 226.417 184.737 205.577 205.577C184.737 226.417 156.472 238.125 127 238.125ZM127 254C160.682 254 192.985 240.62 216.803 216.803C240.62 192.985 254 160.682 254 127C254 93.3175 240.62 61.0146 216.803 37.1974C192.985 13.3803 160.682 0 127 0C93.3175 0 61.0146 13.3803 37.1974 37.1974C13.3803 61.0146 0 93.3175 0 127C0 160.682 13.3803 192.985 37.1974 216.803C61.0146 240.62 93.3175 254 127 254Z" fill="#212529"/>
<path d="M127 63.5C129.105 63.5 131.124 64.3363 132.613 65.8248C134.101 67.3134 134.938 69.3323 134.938 71.4375V119.062H182.562C184.668 119.062 186.687 119.899 188.175 121.387C189.664 122.876 190.5 124.895 190.5 127C190.5 129.105 189.664 131.124 188.175 132.613C186.687 134.101 184.668 134.938 182.562 134.938H134.938V182.562C134.938 184.668 134.101 186.687 132.613 188.175C131.124 189.664 129.105 190.5 127 190.5C124.895 190.5 122.876 189.664 121.387 188.175C119.899 186.687 119.062 184.668 119.062 182.562V134.938H71.4375C69.3323 134.938 67.3134 134.101 65.8248 132.613C64.3363 131.124 63.5 129.105 63.5 127C63.5 124.895 64.3363 122.876 65.8248 121.387C67.3134 119.899 69.3323 119.062 71.4375 119.062H119.062V71.4375C119.062 69.3323 119.899 67.3134 121.387 65.8248C122.876 64.3363 124.895 63.5 127 63.5Z" fill="#212529"/>
</g>
<defs>
<clipPath id="clip0_2008_533850">
<rect width="254" height="254" fill="white"/>
</clipPath>
</defs>
</svg>
